<mxfile host="app.diagrams.net" agent="Mozilla/5.0 (Macintosh; Intel Mac OS X 10_15_7) AppleWebKit/605.1.15 (KHTML, like Gecko) Version/18.0 Safari/605.1.15" version="26.0.16">
  <diagram id="C5RBs43oDa-KdzZeNtuy" name="Page-1">
    <mxGraphModel dx="1724" dy="1100" grid="1" gridSize="10" guides="1" tooltips="1" connect="1" arrows="1" fold="1" page="1" pageScale="1" pageWidth="827" pageHeight="1169" math="0" shadow="0">
      <root>
        <mxCell id="WIyWlLk6GJQsqaUBKTNV-0" />
        <mxCell id="WIyWlLk6GJQsqaUBKTNV-1" parent="WIyWlLk6GJQsqaUBKTNV-0" />
        <mxCell id="AlwEoys2DFzhIrECFDVq-108" style="edgeStyle=orthogonalEdgeStyle;rounded=0;orthogonalLoop=1;jettySize=auto;html=1;exitX=1;exitY=0.5;exitDx=0;exitDy=0;entryX=0;entryY=0.5;entryDx=0;entryDy=0;" edge="1" parent="WIyWlLk6GJQsqaUBKTNV-1" source="AlwEoys2DFzhIrECFDVq-51" target="AlwEoys2DFzhIrECFDVq-100">
          <mxGeometry relative="1" as="geometry" />
        </mxCell>
        <mxCell id="AlwEoys2DFzhIrECFDVq-112" style="edgeStyle=orthogonalEdgeStyle;rounded=0;orthogonalLoop=1;jettySize=auto;html=1;exitX=1;exitY=0.5;exitDx=0;exitDy=0;entryX=0;entryY=0.5;entryDx=0;entryDy=0;" edge="1" parent="WIyWlLk6GJQsqaUBKTNV-1" source="AlwEoys2DFzhIrECFDVq-51" target="AlwEoys2DFzhIrECFDVq-89">
          <mxGeometry relative="1" as="geometry" />
        </mxCell>
        <mxCell id="AlwEoys2DFzhIrECFDVq-113" style="edgeStyle=orthogonalEdgeStyle;rounded=0;orthogonalLoop=1;jettySize=auto;html=1;exitX=1;exitY=0.5;exitDx=0;exitDy=0;entryX=0;entryY=0.5;entryDx=0;entryDy=0;" edge="1" parent="WIyWlLk6GJQsqaUBKTNV-1" source="AlwEoys2DFzhIrECFDVq-51" target="AlwEoys2DFzhIrECFDVq-89">
          <mxGeometry relative="1" as="geometry" />
        </mxCell>
        <mxCell id="AlwEoys2DFzhIrECFDVq-51" value="&lt;div&gt;&lt;br&gt;&lt;/div&gt;&lt;div&gt;UsersService&lt;/div&gt;" style="swimlane;fontStyle=0;align=center;verticalAlign=top;childLayout=stackLayout;horizontal=1;startSize=55;horizontalStack=0;resizeParent=1;resizeParentMax=0;resizeLast=0;collapsible=0;marginBottom=0;html=1;whiteSpace=wrap;" vertex="1" parent="WIyWlLk6GJQsqaUBKTNV-1">
          <mxGeometry x="560" y="550" width="180" height="50" as="geometry" />
        </mxCell>
        <mxCell id="AlwEoys2DFzhIrECFDVq-102" style="edgeStyle=orthogonalEdgeStyle;rounded=0;orthogonalLoop=1;jettySize=auto;html=1;exitX=1;exitY=0.5;exitDx=0;exitDy=0;" edge="1" parent="WIyWlLk6GJQsqaUBKTNV-1" source="AlwEoys2DFzhIrECFDVq-71" target="AlwEoys2DFzhIrECFDVq-97">
          <mxGeometry relative="1" as="geometry" />
        </mxCell>
        <mxCell id="AlwEoys2DFzhIrECFDVq-110" style="edgeStyle=orthogonalEdgeStyle;rounded=0;orthogonalLoop=1;jettySize=auto;html=1;exitX=1;exitY=0.5;exitDx=0;exitDy=0;entryX=0;entryY=0.5;entryDx=0;entryDy=0;" edge="1" parent="WIyWlLk6GJQsqaUBKTNV-1" source="AlwEoys2DFzhIrECFDVq-71" target="AlwEoys2DFzhIrECFDVq-89">
          <mxGeometry relative="1" as="geometry" />
        </mxCell>
        <mxCell id="AlwEoys2DFzhIrECFDVq-71" value="&lt;div&gt;&lt;br&gt;&lt;/div&gt;&lt;div&gt;CinemaService&lt;/div&gt;" style="swimlane;fontStyle=0;align=center;verticalAlign=top;childLayout=stackLayout;horizontal=1;startSize=55;horizontalStack=0;resizeParent=1;resizeParentMax=0;resizeLast=0;collapsible=0;marginBottom=0;html=1;whiteSpace=wrap;" vertex="1" parent="WIyWlLk6GJQsqaUBKTNV-1">
          <mxGeometry x="560" y="340" width="180" height="50" as="geometry" />
        </mxCell>
        <mxCell id="AlwEoys2DFzhIrECFDVq-107" style="edgeStyle=orthogonalEdgeStyle;rounded=0;orthogonalLoop=1;jettySize=auto;html=1;exitX=1;exitY=0.5;exitDx=0;exitDy=0;entryX=0;entryY=0.5;entryDx=0;entryDy=0;" edge="1" parent="WIyWlLk6GJQsqaUBKTNV-1" source="AlwEoys2DFzhIrECFDVq-85" target="AlwEoys2DFzhIrECFDVq-98">
          <mxGeometry relative="1" as="geometry" />
        </mxCell>
        <mxCell id="AlwEoys2DFzhIrECFDVq-111" style="edgeStyle=orthogonalEdgeStyle;rounded=0;orthogonalLoop=1;jettySize=auto;html=1;exitX=1;exitY=0.5;exitDx=0;exitDy=0;entryX=0;entryY=0.5;entryDx=0;entryDy=0;" edge="1" parent="WIyWlLk6GJQsqaUBKTNV-1" source="AlwEoys2DFzhIrECFDVq-85" target="AlwEoys2DFzhIrECFDVq-89">
          <mxGeometry relative="1" as="geometry" />
        </mxCell>
        <mxCell id="AlwEoys2DFzhIrECFDVq-85" value="&lt;div&gt;&lt;br&gt;&lt;/div&gt;&lt;div&gt;CouchService&lt;/div&gt;&lt;div&gt;&lt;br&gt;&lt;/div&gt;" style="swimlane;fontStyle=0;align=center;verticalAlign=top;childLayout=stackLayout;horizontal=1;startSize=55;horizontalStack=0;resizeParent=1;resizeParentMax=0;resizeLast=0;collapsible=0;marginBottom=0;html=1;whiteSpace=wrap;" vertex="1" parent="WIyWlLk6GJQsqaUBKTNV-1">
          <mxGeometry x="560" y="410" width="180" height="50" as="geometry" />
        </mxCell>
        <mxCell id="AlwEoys2DFzhIrECFDVq-92" style="edgeStyle=orthogonalEdgeStyle;rounded=0;orthogonalLoop=1;jettySize=auto;html=1;exitX=1;exitY=0.5;exitDx=0;exitDy=0;entryX=0;entryY=0.5;entryDx=0;entryDy=0;" edge="1" parent="WIyWlLk6GJQsqaUBKTNV-1" source="AlwEoys2DFzhIrECFDVq-86" target="AlwEoys2DFzhIrECFDVq-71">
          <mxGeometry relative="1" as="geometry" />
        </mxCell>
        <mxCell id="AlwEoys2DFzhIrECFDVq-93" style="edgeStyle=orthogonalEdgeStyle;rounded=0;orthogonalLoop=1;jettySize=auto;html=1;exitX=1;exitY=0.5;exitDx=0;exitDy=0;entryX=0;entryY=0.5;entryDx=0;entryDy=0;" edge="1" parent="WIyWlLk6GJQsqaUBKTNV-1" source="AlwEoys2DFzhIrECFDVq-86" target="AlwEoys2DFzhIrECFDVq-85">
          <mxGeometry relative="1" as="geometry" />
        </mxCell>
        <mxCell id="AlwEoys2DFzhIrECFDVq-95" style="edgeStyle=orthogonalEdgeStyle;rounded=0;orthogonalLoop=1;jettySize=auto;html=1;exitX=1;exitY=0.5;exitDx=0;exitDy=0;entryX=0;entryY=0.5;entryDx=0;entryDy=0;" edge="1" parent="WIyWlLk6GJQsqaUBKTNV-1" source="AlwEoys2DFzhIrECFDVq-86" target="AlwEoys2DFzhIrECFDVq-51">
          <mxGeometry relative="1" as="geometry" />
        </mxCell>
        <mxCell id="AlwEoys2DFzhIrECFDVq-96" style="edgeStyle=orthogonalEdgeStyle;rounded=0;orthogonalLoop=1;jettySize=auto;html=1;exitX=1;exitY=0.5;exitDx=0;exitDy=0;entryX=0;entryY=0.5;entryDx=0;entryDy=0;" edge="1" parent="WIyWlLk6GJQsqaUBKTNV-1" source="AlwEoys2DFzhIrECFDVq-86" target="AlwEoys2DFzhIrECFDVq-87">
          <mxGeometry relative="1" as="geometry" />
        </mxCell>
        <mxCell id="AlwEoys2DFzhIrECFDVq-86" value="&lt;div&gt;&lt;br&gt;&lt;/div&gt;AuthService" style="swimlane;fontStyle=0;align=center;verticalAlign=top;childLayout=stackLayout;horizontal=1;startSize=55;horizontalStack=0;resizeParent=1;resizeParentMax=0;resizeLast=0;collapsible=0;marginBottom=0;html=1;whiteSpace=wrap;" vertex="1" parent="WIyWlLk6GJQsqaUBKTNV-1">
          <mxGeometry x="310" y="480" width="170" height="50" as="geometry" />
        </mxCell>
        <mxCell id="AlwEoys2DFzhIrECFDVq-109" style="edgeStyle=orthogonalEdgeStyle;rounded=0;orthogonalLoop=1;jettySize=auto;html=1;exitX=1;exitY=0.5;exitDx=0;exitDy=0;entryX=0;entryY=0.5;entryDx=0;entryDy=0;" edge="1" parent="WIyWlLk6GJQsqaUBKTNV-1" source="AlwEoys2DFzhIrECFDVq-87" target="AlwEoys2DFzhIrECFDVq-101">
          <mxGeometry relative="1" as="geometry" />
        </mxCell>
        <mxCell id="AlwEoys2DFzhIrECFDVq-114" style="edgeStyle=orthogonalEdgeStyle;rounded=0;orthogonalLoop=1;jettySize=auto;html=1;exitX=1;exitY=0.5;exitDx=0;exitDy=0;entryX=0;entryY=0.5;entryDx=0;entryDy=0;" edge="1" parent="WIyWlLk6GJQsqaUBKTNV-1" source="AlwEoys2DFzhIrECFDVq-87" target="AlwEoys2DFzhIrECFDVq-89">
          <mxGeometry relative="1" as="geometry" />
        </mxCell>
        <mxCell id="AlwEoys2DFzhIrECFDVq-87" value="&lt;div&gt;&lt;br&gt;&lt;/div&gt;&lt;div&gt;FileService&lt;/div&gt;&lt;div&gt;&lt;br&gt;&lt;/div&gt;" style="swimlane;fontStyle=0;align=center;verticalAlign=top;childLayout=stackLayout;horizontal=1;startSize=55;horizontalStack=0;resizeParent=1;resizeParentMax=0;resizeLast=0;collapsible=0;marginBottom=0;html=1;whiteSpace=wrap;" vertex="1" parent="WIyWlLk6GJQsqaUBKTNV-1">
          <mxGeometry x="560" y="620" width="180" height="50" as="geometry" />
        </mxCell>
        <mxCell id="AlwEoys2DFzhIrECFDVq-88" value="&lt;div&gt;&lt;br&gt;&lt;/div&gt;&lt;div&gt;ValidatorService&lt;/div&gt;&lt;div&gt;&lt;br&gt;&lt;/div&gt;" style="swimlane;fontStyle=0;align=center;verticalAlign=top;childLayout=stackLayout;horizontal=1;startSize=55;horizontalStack=0;resizeParent=1;resizeParentMax=0;resizeLast=0;collapsible=0;marginBottom=0;html=1;whiteSpace=wrap;" vertex="1" parent="WIyWlLk6GJQsqaUBKTNV-1">
          <mxGeometry x="150" y="300" width="180" height="50" as="geometry" />
        </mxCell>
        <mxCell id="AlwEoys2DFzhIrECFDVq-116" style="edgeStyle=orthogonalEdgeStyle;rounded=0;orthogonalLoop=1;jettySize=auto;html=1;exitX=1;exitY=0.5;exitDx=0;exitDy=0;entryX=0;entryY=0.5;entryDx=0;entryDy=0;" edge="1" parent="WIyWlLk6GJQsqaUBKTNV-1" source="AlwEoys2DFzhIrECFDVq-89" target="AlwEoys2DFzhIrECFDVq-115">
          <mxGeometry relative="1" as="geometry" />
        </mxCell>
        <mxCell id="AlwEoys2DFzhIrECFDVq-89" value="&lt;div&gt;&lt;br&gt;&lt;/div&gt;&lt;div&gt;Prometheus&lt;/div&gt;" style="swimlane;fontStyle=0;align=center;verticalAlign=top;childLayout=stackLayout;horizontal=1;startSize=55;horizontalStack=0;resizeParent=1;resizeParentMax=0;resizeLast=0;collapsible=0;marginBottom=0;html=1;whiteSpace=wrap;" vertex="1" parent="WIyWlLk6GJQsqaUBKTNV-1">
          <mxGeometry x="800" y="480" width="180" height="50" as="geometry" />
        </mxCell>
        <mxCell id="AlwEoys2DFzhIrECFDVq-91" style="edgeStyle=orthogonalEdgeStyle;rounded=0;orthogonalLoop=1;jettySize=auto;html=1;exitX=1;exitY=0.5;exitDx=0;exitDy=0;entryX=0;entryY=0.5;entryDx=0;entryDy=0;" edge="1" parent="WIyWlLk6GJQsqaUBKTNV-1" source="AlwEoys2DFzhIrECFDVq-90" target="AlwEoys2DFzhIrECFDVq-86">
          <mxGeometry relative="1" as="geometry" />
        </mxCell>
        <mxCell id="AlwEoys2DFzhIrECFDVq-105" style="edgeStyle=orthogonalEdgeStyle;rounded=0;orthogonalLoop=1;jettySize=auto;html=1;exitX=1;exitY=0.5;exitDx=0;exitDy=0;entryX=0;entryY=0.5;entryDx=0;entryDy=0;" edge="1" parent="WIyWlLk6GJQsqaUBKTNV-1" source="AlwEoys2DFzhIrECFDVq-90" target="AlwEoys2DFzhIrECFDVq-87">
          <mxGeometry relative="1" as="geometry">
            <mxPoint x="260" y="650" as="targetPoint" />
            <Array as="points">
              <mxPoint x="260" y="505" />
              <mxPoint x="260" y="645" />
            </Array>
          </mxGeometry>
        </mxCell>
        <mxCell id="AlwEoys2DFzhIrECFDVq-106" style="edgeStyle=orthogonalEdgeStyle;rounded=0;orthogonalLoop=1;jettySize=auto;html=1;exitX=0.5;exitY=0;exitDx=0;exitDy=0;entryX=0.5;entryY=1;entryDx=0;entryDy=0;" edge="1" parent="WIyWlLk6GJQsqaUBKTNV-1" source="AlwEoys2DFzhIrECFDVq-90" target="AlwEoys2DFzhIrECFDVq-88">
          <mxGeometry relative="1" as="geometry" />
        </mxCell>
        <mxCell id="AlwEoys2DFzhIrECFDVq-129" style="edgeStyle=orthogonalEdgeStyle;rounded=0;orthogonalLoop=1;jettySize=auto;html=1;exitX=1;exitY=0.5;exitDx=0;exitDy=0;entryX=0;entryY=0.5;entryDx=0;entryDy=0;" edge="1" parent="WIyWlLk6GJQsqaUBKTNV-1" source="AlwEoys2DFzhIrECFDVq-90" target="AlwEoys2DFzhIrECFDVq-51">
          <mxGeometry relative="1" as="geometry">
            <Array as="points">
              <mxPoint x="260" y="505" />
              <mxPoint x="260" y="575" />
            </Array>
          </mxGeometry>
        </mxCell>
        <mxCell id="AlwEoys2DFzhIrECFDVq-131" style="edgeStyle=orthogonalEdgeStyle;rounded=0;orthogonalLoop=1;jettySize=auto;html=1;exitX=1;exitY=0.5;exitDx=0;exitDy=0;entryX=0;entryY=0.5;entryDx=0;entryDy=0;" edge="1" parent="WIyWlLk6GJQsqaUBKTNV-1" source="AlwEoys2DFzhIrECFDVq-90" target="AlwEoys2DFzhIrECFDVq-71">
          <mxGeometry relative="1" as="geometry">
            <Array as="points">
              <mxPoint x="260" y="505" />
              <mxPoint x="260" y="365" />
            </Array>
          </mxGeometry>
        </mxCell>
        <mxCell id="AlwEoys2DFzhIrECFDVq-132" style="edgeStyle=orthogonalEdgeStyle;rounded=0;orthogonalLoop=1;jettySize=auto;html=1;exitX=1;exitY=0.5;exitDx=0;exitDy=0;entryX=0;entryY=0.5;entryDx=0;entryDy=0;" edge="1" parent="WIyWlLk6GJQsqaUBKTNV-1" source="AlwEoys2DFzhIrECFDVq-90" target="AlwEoys2DFzhIrECFDVq-85">
          <mxGeometry relative="1" as="geometry">
            <Array as="points">
              <mxPoint x="260" y="505" />
              <mxPoint x="260" y="435" />
            </Array>
          </mxGeometry>
        </mxCell>
        <mxCell id="AlwEoys2DFzhIrECFDVq-90" value="&lt;div&gt;&lt;br&gt;&lt;/div&gt;&lt;div&gt;API&lt;/div&gt;" style="swimlane;fontStyle=0;align=center;verticalAlign=top;childLayout=stackLayout;horizontal=1;startSize=55;horizontalStack=0;resizeParent=1;resizeParentMax=0;resizeLast=0;collapsible=0;marginBottom=0;html=1;whiteSpace=wrap;" vertex="1" parent="WIyWlLk6GJQsqaUBKTNV-1">
          <mxGeometry x="50" y="480" width="180" height="50" as="geometry" />
        </mxCell>
        <mxCell id="AlwEoys2DFzhIrECFDVq-118" style="edgeStyle=orthogonalEdgeStyle;rounded=0;orthogonalLoop=1;jettySize=auto;html=1;exitX=1;exitY=0.5;exitDx=0;exitDy=0;entryX=0;entryY=0.5;entryDx=0;entryDy=0;" edge="1" parent="WIyWlLk6GJQsqaUBKTNV-1" source="AlwEoys2DFzhIrECFDVq-97" target="AlwEoys2DFzhIrECFDVq-117">
          <mxGeometry relative="1" as="geometry" />
        </mxCell>
        <mxCell id="AlwEoys2DFzhIrECFDVq-97" value="&lt;div&gt;&lt;br&gt;&lt;/div&gt;&lt;div&gt;CinemaRepository&lt;/div&gt;" style="swimlane;fontStyle=0;align=center;verticalAlign=top;childLayout=stackLayout;horizontal=1;startSize=55;horizontalStack=0;resizeParent=1;resizeParentMax=0;resizeLast=0;collapsible=0;marginBottom=0;html=1;whiteSpace=wrap;" vertex="1" parent="WIyWlLk6GJQsqaUBKTNV-1">
          <mxGeometry x="1020" y="340" width="180" height="50" as="geometry" />
        </mxCell>
        <mxCell id="AlwEoys2DFzhIrECFDVq-119" style="edgeStyle=orthogonalEdgeStyle;rounded=0;orthogonalLoop=1;jettySize=auto;html=1;exitX=1;exitY=0.5;exitDx=0;exitDy=0;entryX=0;entryY=0.5;entryDx=0;entryDy=0;" edge="1" parent="WIyWlLk6GJQsqaUBKTNV-1" source="AlwEoys2DFzhIrECFDVq-98" target="AlwEoys2DFzhIrECFDVq-117">
          <mxGeometry relative="1" as="geometry" />
        </mxCell>
        <mxCell id="AlwEoys2DFzhIrECFDVq-98" value="&lt;div&gt;&lt;br&gt;&lt;/div&gt;&lt;div&gt;CouchRepository&lt;/div&gt;" style="swimlane;fontStyle=0;align=center;verticalAlign=top;childLayout=stackLayout;horizontal=1;startSize=55;horizontalStack=0;resizeParent=1;resizeParentMax=0;resizeLast=0;collapsible=0;marginBottom=0;html=1;whiteSpace=wrap;" vertex="1" parent="WIyWlLk6GJQsqaUBKTNV-1">
          <mxGeometry x="1020" y="410" width="180" height="50" as="geometry" />
        </mxCell>
        <mxCell id="AlwEoys2DFzhIrECFDVq-120" style="edgeStyle=orthogonalEdgeStyle;rounded=0;orthogonalLoop=1;jettySize=auto;html=1;exitX=1;exitY=0.5;exitDx=0;exitDy=0;entryX=0;entryY=0.5;entryDx=0;entryDy=0;" edge="1" parent="WIyWlLk6GJQsqaUBKTNV-1" source="AlwEoys2DFzhIrECFDVq-100" target="AlwEoys2DFzhIrECFDVq-117">
          <mxGeometry relative="1" as="geometry" />
        </mxCell>
        <mxCell id="AlwEoys2DFzhIrECFDVq-100" value="&lt;div&gt;&lt;br&gt;&lt;/div&gt;&lt;div&gt;UsersRepository&lt;/div&gt;" style="swimlane;fontStyle=0;align=center;verticalAlign=top;childLayout=stackLayout;horizontal=1;startSize=55;horizontalStack=0;resizeParent=1;resizeParentMax=0;resizeLast=0;collapsible=0;marginBottom=0;html=1;whiteSpace=wrap;" vertex="1" parent="WIyWlLk6GJQsqaUBKTNV-1">
          <mxGeometry x="1020" y="550" width="180" height="50" as="geometry" />
        </mxCell>
        <mxCell id="AlwEoys2DFzhIrECFDVq-121" style="edgeStyle=orthogonalEdgeStyle;rounded=0;orthogonalLoop=1;jettySize=auto;html=1;exitX=1;exitY=0.5;exitDx=0;exitDy=0;entryX=0;entryY=0.5;entryDx=0;entryDy=0;" edge="1" parent="WIyWlLk6GJQsqaUBKTNV-1" source="AlwEoys2DFzhIrECFDVq-101" target="AlwEoys2DFzhIrECFDVq-117">
          <mxGeometry relative="1" as="geometry" />
        </mxCell>
        <mxCell id="AlwEoys2DFzhIrECFDVq-128" style="edgeStyle=orthogonalEdgeStyle;rounded=0;orthogonalLoop=1;jettySize=auto;html=1;exitX=0.5;exitY=1;exitDx=0;exitDy=0;entryX=0;entryY=0.5;entryDx=0;entryDy=0;" edge="1" parent="WIyWlLk6GJQsqaUBKTNV-1" source="AlwEoys2DFzhIrECFDVq-101" target="AlwEoys2DFzhIrECFDVq-125">
          <mxGeometry relative="1" as="geometry" />
        </mxCell>
        <mxCell id="AlwEoys2DFzhIrECFDVq-101" value="&lt;div&gt;&lt;br&gt;&lt;/div&gt;&lt;div&gt;FileRepository&lt;/div&gt;" style="swimlane;fontStyle=0;align=center;verticalAlign=top;childLayout=stackLayout;horizontal=1;startSize=55;horizontalStack=0;resizeParent=1;resizeParentMax=0;resizeLast=0;collapsible=0;marginBottom=0;html=1;whiteSpace=wrap;" vertex="1" parent="WIyWlLk6GJQsqaUBKTNV-1">
          <mxGeometry x="1020" y="620" width="180" height="50" as="geometry" />
        </mxCell>
        <mxCell id="AlwEoys2DFzhIrECFDVq-115" value="&lt;div&gt;&lt;br&gt;&lt;/div&gt;&lt;div&gt;Grafana&lt;/div&gt;" style="swimlane;fontStyle=0;align=center;verticalAlign=top;childLayout=stackLayout;horizontal=1;startSize=55;horizontalStack=0;resizeParent=1;resizeParentMax=0;resizeLast=0;collapsible=0;marginBottom=0;html=1;whiteSpace=wrap;" vertex="1" parent="WIyWlLk6GJQsqaUBKTNV-1">
          <mxGeometry x="1110" y="480" width="180" height="50" as="geometry" />
        </mxCell>
        <mxCell id="AlwEoys2DFzhIrECFDVq-117" value="&lt;div&gt;&lt;br&gt;&lt;/div&gt;&lt;div&gt;PostgreSQL&lt;/div&gt;" style="swimlane;fontStyle=0;align=center;verticalAlign=top;childLayout=stackLayout;horizontal=1;startSize=55;horizontalStack=0;resizeParent=1;resizeParentMax=0;resizeLast=0;collapsible=0;marginBottom=0;html=1;whiteSpace=wrap;" vertex="1" parent="WIyWlLk6GJQsqaUBKTNV-1">
          <mxGeometry x="1430" y="480" width="180" height="50" as="geometry" />
        </mxCell>
        <mxCell id="AlwEoys2DFzhIrECFDVq-123" value="" style="rounded=0;whiteSpace=wrap;html=1;fillColor=none;dashed=1;dashPattern=12 12;" vertex="1" parent="WIyWlLk6GJQsqaUBKTNV-1">
          <mxGeometry x="790" y="470" width="510" height="70" as="geometry" />
        </mxCell>
        <mxCell id="AlwEoys2DFzhIrECFDVq-124" value="Metrics" style="text;html=1;align=center;verticalAlign=middle;whiteSpace=wrap;rounded=0;" vertex="1" parent="WIyWlLk6GJQsqaUBKTNV-1">
          <mxGeometry x="790" y="440" width="60" height="30" as="geometry" />
        </mxCell>
        <mxCell id="AlwEoys2DFzhIrECFDVq-125" value="&lt;div&gt;&lt;br&gt;&lt;/div&gt;&lt;div&gt;S3 (MinIO)&lt;/div&gt;" style="swimlane;fontStyle=0;align=center;verticalAlign=top;childLayout=stackLayout;horizontal=1;startSize=55;horizontalStack=0;resizeParent=1;resizeParentMax=0;resizeLast=0;collapsible=0;marginBottom=0;html=1;whiteSpace=wrap;" vertex="1" parent="WIyWlLk6GJQsqaUBKTNV-1">
          <mxGeometry x="1430" y="670" width="180" height="50" as="geometry" />
        </mxCell>
      </root>
    </mxGraphModel>
  </diagram>
</mxfile>
